<svg width="27" height="27" viewBox="0 0 27 27" fill="none" xmlns="http://www.w3.org/2000/svg">
<circle cx="13.5" cy="13.5" r="13.5" fill="#303045"/>
<path d="M19.3929 14.5046V13.8641C19.3929 13.3227 19.03 12.8439 18.5104 12.6996C18.08 12.5802 17.6623 12.4812 17.25 12.3911V10.6786H17.7857C18.0816 10.6786 18.3214 10.4387 18.3214 10.1429C18.3214 9.84696 18.0816 9.60714 17.7857 9.60714H17.25C16.6591 9.60714 16.1786 10.0877 16.1786 10.6786V12.182C15.168 12.0089 14.2087 11.9077 13.2943 11.85L12.6182 9.20839C12.4359 8.49696 11.7959 8 11.0612 8H8.14286C7.84696 8 7.60714 8.23982 7.60714 8.53571V11.8912C6.63714 12.5696 6 13.6932 6 14.9643C6 17.0321 7.68214 18.7143 9.75 18.7143C11.0211 18.7143 12.1446 18.0771 12.823 17.1071H16.7904C17.03 18.0287 17.8616 18.7143 18.8571 18.7143C20.0388 18.7143 21 17.753 21 16.5714C21 15.5759 20.3145 14.7443 19.3929 14.5046ZM8.67857 9.07143H11.0612C11.3061 9.07143 11.5195 9.23696 11.5802 9.47429L12.1743 11.7955C12.1411 11.7945 11.8261 11.7843 11.732 11.7818C11.1934 11.4461 10.5343 11.2382 9.84196 11.2189C9.41911 11.2086 9.03071 11.268 8.67857 11.372V9.07143ZM9.75 17.6429C8.27304 17.6429 7.07143 16.4412 7.07143 14.9643C7.07143 13.4423 8.35571 12.2432 9.84464 12.2954C11.3184 12.3482 12.4286 13.563 12.4286 14.9643C12.4286 16.3889 11.2582 17.6429 9.75 17.6429ZM16.782 16.0357H13.3423C13.6488 15.0082 13.5068 13.8471 12.8786 12.8979C14.5061 12.9846 16.2695 13.1889 18.2238 13.7318C18.2793 13.7475 18.3214 13.8041 18.3214 13.8641V14.4964C17.553 14.695 16.9662 15.3234 16.782 16.0357ZM18.8571 17.6429C18.2663 17.6429 17.7857 17.1623 17.7857 16.5714C17.7857 15.9805 18.2663 15.5 18.8571 15.5C19.448 15.5 19.9286 15.9805 19.9286 16.5714C19.9286 17.1623 19.448 17.6429 18.8571 17.6429Z" fill="#C3C2D5"/>
<path d="M10.8213 14.9643C10.8213 15.5552 10.3408 16.0357 9.7499 16.0357C9.159 16.0357 8.67847 15.5552 8.67847 14.9643C8.67847 14.3734 9.159 13.8929 9.7499 13.8929C10.3408 13.8929 10.8213 14.3734 10.8213 14.9643Z" fill="#C3C2D5"/>
</svg>
