<svg width="16" height="13" viewBox="0 0 16 13" fill="none" xmlns="http://www.w3.org/2000/svg">
<path fill-rule="evenodd" clip-rule="evenodd" d="M6.38964 0.000401024C6.18211 0.00699956 5.98526 0.0939546 5.84059 0.242884L0.236044 5.84743C0.161234 5.92186 0.10187 6.0103 0.0613614 6.10774C0.0208533 6.20519 0 6.30973 0 6.41526C0 6.52079 0.0208533 6.62524 0.0613614 6.72268C0.10187 6.82012 0.161234 6.90857 0.236044 6.98299L5.84059 12.5876C5.9124 12.6714 6.00076 12.7395 6.10013 12.7875C6.19949 12.8356 6.3077 12.8625 6.41799 12.8668C6.52827 12.871 6.63824 12.8524 6.741 12.8121C6.84376 12.7718 6.93708 12.7108 7.01512 12.6327C7.09316 12.5547 7.15423 12.4614 7.1945 12.3586C7.23477 12.2559 7.25337 12.1459 7.24912 12.0356C7.24488 11.9253 7.2179 11.8171 7.16986 11.7177C7.12182 11.6184 7.05376 11.5301 6.96996 11.4583L2.73565 7.21919H15.2165C15.4258 7.21461 15.6251 7.12825 15.7715 6.97856C15.918 6.82886 16 6.62773 16 6.41831C16 6.20889 15.918 6.00784 15.7715 5.85815C15.6251 5.70845 15.4258 5.62201 15.2165 5.61742H2.73096L6.96996 1.37844C7.08672 1.26624 7.16673 1.12126 7.19943 0.962667C7.23214 0.804072 7.216 0.639317 7.15315 0.490079C7.09031 0.34084 6.9837 0.214192 6.8474 0.126769C6.71109 0.0393466 6.55149 -0.00472232 6.38964 0.000401024Z" fill="#F7F7F7"/>
</svg>
