<svg width="20" height="20" viewBox="0 0 20 20" fill="none" xmlns="http://www.w3.org/2000/svg">
<path d="M0.273685 13.3474L0.800001 13.5579L0.631578 14.1053L1.64211 14.4211C2.37895 15.4737 3.34737 16.3579 4.48421 16.9684L4.54737 17.3474L5.05263 17.2632L5.11579 17.2842L5.26316 17.7895L5.78947 17.6421L5.97895 18.1684L6.50526 17.9789L6.73684 18.4842L7.26316 18.2526L7.53684 18.7368L8.02105 18.4632L8.33684 18.9263L8.8 18.6105L9.1579 19.0526L9.57895 18.6947L10 19.0737L10.4 18.6737L10.8211 19.0316L11.1789 18.5895L11.6421 18.9053L11.9579 18.4421L12.4421 18.7158L12.7368 18.2526L13.2421 18.4842L13.4737 17.9789L14 18.1684L14.2105 17.6421L14.7579 17.7895L14.8842 17.2842L14.9474 17.2632L15.4526 17.3474L15.5158 16.9684C16.6526 16.3579 17.6211 15.4737 18.3579 14.4211L19.3684 14.1053L19.2 13.5579L19.7263 13.3474L19.5158 12.8211L20 12.5474L19.5158 11.6211C19.6211 11.0947 19.6632 10.5474 19.6632 10.0211C19.6632 8.69474 19.3684 7.36842 18.7789 6.16842C19.7263 5.45263 19.8947 4.08421 19.1789 3.15789C18.4632 2.23158 17.0947 2.0421 16.1684 2.75789L16.1053 2.23158L15.5368 2.27368L15.4316 1.72632L14.8842 1.83158L14.7368 1.28421L14.1895 1.43158L14 0.905263L13.4737 1.09474L13.2421 0.589474L12.7368 0.821053L12.4632 0.336842L11.9789 0.610526L11.6632 0.147368L11.2 0.463158L10.8421 0.0210527L10.4211 0.378947L10 0L9.6 0.4L9.17895 0.0421053L8.82105 0.463158L8.35789 0.147368L8.04211 0.610526L7.55789 0.336842L7.26316 0.821053L6.75789 0.589474L6.52632 1.09474L6 0.905263L5.81053 1.43158L5.26316 1.28421L5.11579 1.83158L4.56842 1.72632L4.46316 2.27368L3.91579 2.23158L3.87368 2.75789C2.92632 2.02105 1.57895 2.21053 0.842106 3.13684C0.105263 4.08421 0.294737 5.43158 1.22105 6.16842C0.63158 7.36842 0.336842 8.69474 0.336842 10.0211C0.336842 10.5684 0.378948 11.0947 0.484211 11.6211L0 12.5474L0.505264 12.8L0.273685 13.3474ZM17.5158 3.32632C18.1053 3.32632 18.6105 3.81053 18.6105 4.42105C18.6105 4.71579 18.4842 5.01053 18.2737 5.2C17.8947 4.58947 17.4316 4.02105 16.9053 3.51579C17.0737 3.38947 17.3053 3.32632 17.5158 3.32632ZM2.48421 3.32632C2.71579 3.32632 2.92632 3.38947 3.11579 3.51579C2.58947 4.02105 2.12632 4.58947 1.74737 5.2C1.30526 4.77895 1.28421 4.10526 1.70526 3.66316C1.91579 3.45263 2.21053 3.32632 2.48421 3.32632ZM13.8316 5.53684C13.8316 5.28421 14.0421 5.07368 14.2947 5.07368C14.5474 5.07368 14.7579 5.28421 14.7579 5.53684C14.7579 5.78947 14.5474 6 14.2947 6C14.0211 6 13.8316 5.78947 13.8316 5.53684ZM6.16842 5.53684C6.16842 5.78947 5.95789 6 5.70526 6C5.45263 6 5.24211 5.78947 5.24211 5.53684C5.24211 5.28421 5.45263 5.07368 5.70526 5.07368C5.95789 5.07368 6.16842 5.28421 6.16842 5.53684ZM10 17.3263C9.62105 17.3263 9.2421 17.4947 8.86316 17.4105C8.31579 17.3053 7.83158 17.0105 7.49474 16.5684C7.13684 16.0421 6.65263 13.9789 6.44211 12.5684C6.21053 11.0947 6.08421 9.6 6.10526 8.10526C6.18947 4.06316 10 4.4421 10 4.4421C10 4.4421 13.8105 4.06316 13.8947 8.12632C13.9158 9.62105 13.8105 11.1158 13.5579 12.5895C13.3474 13.9789 12.8842 16.0632 12.5053 16.5895C12.1684 17.0316 11.6632 17.3263 11.1368 17.4316C10.7579 17.5158 10.3579 17.3474 10 17.3263Z" fill="white"/>
<path d="M10 5.34735C10 5.34735 8.69475 5.28419 8.21054 5.97893C7.72633 6.67367 8.7158 8.06314 8.7158 8.06314C8.7158 8.06314 8.92633 8.44209 10 8.44209C11.0737 8.44209 11.2842 8.06314 11.2842 8.06314C11.2842 8.06314 12.2737 6.69472 11.7895 5.97893C11.3053 5.26314 10 5.3684 10 5.34735Z" fill="white"/>
<path d="M9.99998 16.4842C9.83156 16.4842 9.68419 16.4421 9.55788 16.3368C9.26314 16.1684 9.09472 15.7895 8.9684 15.4737C8.86314 15.2 8.77893 14.9895 8.63156 14.9895C8.39998 15.0105 8.37893 15.3684 8.37893 15.5158C8.37893 15.7895 8.42103 16.0631 8.48419 16.3158C8.35788 16.3368 8.08419 16.1263 7.99998 16.0421C7.81051 15.7684 7.68419 15.4526 7.62103 15.1158C7.53682 14.7789 7.47367 14.421 7.41051 14.0842C7.28419 13.3895 7.15788 12.6737 7.05261 11.9789C6.98945 11.5579 6.94735 11.1158 6.94735 10.6737C6.94735 10.4842 6.98945 10.2947 7.05261 10.1052C7.07366 10.0421 7.11577 9.95788 7.17893 9.91577C7.19998 9.89472 7.22103 9.89472 7.24209 9.89472C7.28419 10.1474 7.34735 10.4 7.43156 10.6526C7.49472 10.8842 7.62103 11.0737 7.78945 11.2421C7.87366 11.3684 8.02103 11.4105 8.1684 11.3473C8.39998 11.221 8.23156 10.7158 8.27366 10.5052C8.27366 10.2316 8.35788 9.97893 8.5263 9.7684C9.01051 9.62103 9.49472 9.55788 9.99998 9.57893C10.5052 9.55788 10.9895 9.62103 11.4737 9.7684C11.6421 9.97893 11.7263 10.2526 11.7263 10.5263C11.7473 10.7368 11.6 11.221 11.8316 11.3684C11.9789 11.4105 12.1263 11.3684 12.2105 11.2631C12.3789 11.0947 12.5052 10.8842 12.5684 10.6737C12.6526 10.421 12.7158 10.1895 12.7579 9.91577C12.7789 9.91577 12.821 9.91577 12.821 9.93682C12.8842 9.97893 12.9263 10.0631 12.9473 10.1263C13.0105 10.3158 13.0526 10.5052 13.0526 10.6947C13.0526 11.1368 13.0105 11.5579 12.9473 12C12.8421 12.7158 12.7158 13.4105 12.5895 14.1052C12.5263 14.4631 12.4631 14.8 12.3789 15.1368C12.3158 15.4737 12.1895 15.7895 12.021 16.0631C11.9368 16.1473 11.6631 16.3579 11.5368 16.3368C11.6 16.0842 11.6421 15.8105 11.6421 15.5368C11.6421 15.3895 11.6 15.0105 11.3895 15.0105C11.2421 15.0105 11.1579 15.221 11.0526 15.4947C10.9263 15.8105 10.7789 16.1684 10.4631 16.3579C10.3158 16.4421 10.1684 16.4842 9.99998 16.4842Z" fill="white"/>
</svg>
