<svg width="69" height="69" viewBox="0 0 69 69" fill="none" xmlns="http://www.w3.org/2000/svg">
<rect x="12.2667" y="11.5" width="45.2333" height="44.4667" fill="#C3C2D5"/>
<path fill-rule="evenodd" clip-rule="evenodd" d="M34.5 69C15.4462 69 0 53.5538 0 34.5C0 15.4462 15.4462 0 34.5 0C53.5538 0 69 15.4462 69 34.5C69 53.5538 53.5538 69 34.5 69ZM21.2337 27.8275L30.693 28.9425C30.693 28.9425 30.693 23.7733 35.1093 23.7733C36.9012 23.7733 38.0582 24.7873 38.0582 26.7146C38.0582 28.6419 35.307 30.4563 34.1377 31.3482C29.5412 34.8539 29.223 38.7785 29.223 41.5142C30.051 41.5337 35.2977 41.5337 38.5486 41.5337C38.5486 36.9527 41.24 36.6089 45.5487 32.2961C50.6943 27.1456 48.2623 15.9396 34.9286 15.9521C21.052 15.9651 21.2337 27.8275 21.2337 27.8275ZM29.2618 44.0733V53.0144H38.5641V44.0733H29.2618Z" fill="#303045"/>
</svg>
