<svg width="15" height="15" viewBox="0 0 15 15" fill="none" xmlns="http://www.w3.org/2000/svg">
<circle cx="7.5" cy="7.5" r="7.5" fill="#303045"/>
<path d="M6.49512 8.99805H7.39844C7.39844 8.87109 7.40169 8.75879 7.4082 8.66113C7.41471 8.56022 7.43099 8.46582 7.45703 8.37793C7.48307 8.29004 7.52214 8.20378 7.57422 8.11914C7.62956 8.03451 7.70605 7.94499 7.80371 7.85059C7.95671 7.71387 8.11133 7.56576 8.26758 7.40625C8.42708 7.24674 8.57031 7.07422 8.69727 6.88867C8.82422 6.70638 8.92839 6.5127 9.00977 6.30762C9.09115 6.09928 9.13184 5.87793 9.13184 5.64355C9.13184 5.35059 9.08464 5.09017 8.99023 4.8623C8.89583 4.63444 8.75911 4.44076 8.58008 4.28125C8.40104 4.12174 8.18132 4.0013 7.9209 3.91992C7.66374 3.83529 7.37077 3.79297 7.04199 3.79297C6.74577 3.79297 6.46908 3.83366 6.21191 3.91504C5.95801 3.99316 5.73828 4.1071 5.55273 4.25684C5.36393 4.40983 5.21419 4.59538 5.10352 4.81348C4.99284 5.03158 4.93587 5.27734 4.93262 5.55078H5.83594C5.83594 5.38151 5.87012 5.23665 5.93848 5.11621C6.00684 4.99251 6.09798 4.88997 6.21191 4.80859C6.32259 4.73047 6.44954 4.6735 6.59277 4.6377C6.73926 4.59863 6.889 4.5791 7.04199 4.5791C7.24056 4.5791 7.41634 4.60514 7.56934 4.65723C7.72233 4.70931 7.84928 4.78581 7.9502 4.88672C8.04134 4.97786 8.1097 5.09017 8.15527 5.22363C8.2041 5.35384 8.22852 5.50358 8.22852 5.67285C8.22852 5.83561 8.19759 5.99023 8.13574 6.13672C8.07389 6.2832 7.99577 6.42155 7.90137 6.55176C7.80371 6.68522 7.69629 6.81217 7.5791 6.93262C7.46517 7.05306 7.35286 7.17025 7.24219 7.28418C7.07943 7.43392 6.94922 7.56413 6.85156 7.6748C6.75391 7.78223 6.67904 7.89453 6.62695 8.01172C6.57487 8.13216 6.54069 8.26888 6.52441 8.42188C6.50814 8.57161 6.49837 8.76367 6.49512 8.99805ZM6.39258 10.5264C6.39258 10.6761 6.43815 10.8014 6.5293 10.9023C6.6237 11.0033 6.76367 11.0537 6.94922 11.0537C7.13477 11.0537 7.27474 11.0033 7.36914 10.9023C7.4668 10.8014 7.51562 10.6761 7.51562 10.5264C7.51562 10.3701 7.4668 10.2399 7.36914 10.1357C7.27474 10.0316 7.13477 9.97949 6.94922 9.97949C6.76367 9.97949 6.6237 10.0316 6.5293 10.1357C6.43815 10.2399 6.39258 10.3701 6.39258 10.5264Z" fill="white"/>
</svg>
