<svg width="27" height="27" viewBox="0 0 27 27" fill="none" xmlns="http://www.w3.org/2000/svg">
<circle cx="13.5" cy="13.5" r="13.5" fill="#303045"/>
<path d="M13.5 6C9.36452 6 6 9.36452 6 13.5C6 17.6355 9.36452 21 13.5 21C17.6355 21 21 17.6355 21 13.5C21 9.36452 17.6355 6 13.5 6ZM14.231 16.9538V18.1001H12.7802V17.0378C12.2434 16.969 11.7267 16.7864 11.3846 16.5425L11.1365 16.3652L11.659 14.908L12.0878 15.1937C12.437 15.427 12.9042 15.5666 13.3373 15.5666C13.8237 15.5666 14.1502 15.3258 14.1502 14.9677C14.1502 14.7197 14.0411 14.4459 13.2468 14.1244C12.2888 13.7483 11.3084 13.1995 11.3084 11.9816C11.3084 11.0416 11.8977 10.2933 12.8516 10.0135V8.8997H14.2921V9.92367C14.7114 9.98006 15.0817 10.1051 15.422 10.3048L15.7153 10.4767L15.1724 11.9111L14.7629 11.6772C14.6089 11.589 14.2486 11.3827 13.6748 11.3827C13.0428 11.3827 12.9936 11.7472 12.9936 11.8589C12.9936 12.0837 13.0646 12.2604 14.0125 12.652C14.8661 13.0001 15.846 13.5698 15.846 14.8946C15.8458 15.8613 15.2143 16.6628 14.231 16.9538Z" fill="#C3C2D5"/>
</svg>
