<svg width="27" height="27" viewBox="0 0 27 27" fill="none" xmlns="http://www.w3.org/2000/svg">
<circle cx="13.5" cy="13.5" r="13.5" fill="#303045"/>
<path d="M16.8185 19.3171H9.45272C9.24173 19.3171 9.06909 19.1445 9.06909 18.9335C9.06909 18.7225 9.24173 18.5498 9.45272 18.5498H16.665L20.1177 15.2123C20.1944 15.1355 20.2328 15.0396 20.2328 14.9245C20.2328 14.8094 20.1752 14.6943 20.0985 14.6176C20.0026 14.5409 19.9067 14.5025 19.7916 14.5217H19.7532C19.6957 14.5217 19.6573 14.5409 19.5998 14.5793L16.3581 16.5741C16.3005 16.6125 16.2238 16.6317 16.1663 16.6317H11.7545C11.5435 16.6317 11.3709 16.4591 11.3709 16.2481C11.3709 16.0371 11.5435 15.8644 11.7545 15.8644H16.0512L19.197 13.9271C19.3504 13.8504 19.4847 13.7928 19.6381 13.7736H19.6765C20.0026 13.7353 20.3479 13.8312 20.5972 14.0614C20.8466 14.2915 21 14.5984 21 14.9437C21 15.2506 20.8658 15.5575 20.6356 15.7877L17.087 19.202C17.0103 19.2787 16.9144 19.3171 16.8185 19.3171Z" fill="white"/>
<path d="M16.1471 16.4399C16.0704 16.4399 15.9936 16.4207 15.9169 16.3632C15.7443 16.2289 15.7059 15.9987 15.8402 15.8261C15.9745 15.6534 15.9936 15.4233 15.8977 15.2123C15.8018 15.0204 15.61 14.8862 15.3798 14.8862L9.45272 14.9054C9.24173 14.9054 9.06909 14.7327 9.06909 14.5217C9.06909 14.3107 9.24173 14.1381 9.45272 14.1381H15.3798C15.8977 14.1381 16.3581 14.4258 16.5883 14.8862C16.8185 15.3465 16.7609 15.8836 16.454 16.2864C16.3773 16.3823 16.2622 16.4399 16.1471 16.4399Z" fill="white"/>
<path d="M9.45269 19.7008H6.38363C6.17263 19.7008 6 19.5281 6 19.3171V13.9463C6 13.7353 6.17263 13.5627 6.38363 13.5627H9.45269C9.66368 13.5627 9.83632 13.7353 9.83632 13.9463V19.3171C9.83632 19.5281 9.66368 19.7008 9.45269 19.7008ZM6.76726 18.9335H9.06905V14.3299H6.76726V18.9335Z" fill="white"/>
<path d="M12.7135 13.3708H11.179C10.968 13.3708 10.7953 13.1981 10.7953 12.9871C10.7953 12.7761 10.968 12.6035 11.179 12.6035H12.7135C12.9245 12.6035 13.0971 12.7761 13.0971 12.9871C13.0971 13.1981 12.9245 13.3708 12.7135 13.3708Z" fill="white"/>
<path d="M12.7135 11.8364H11.179C10.968 11.8364 10.7953 11.6637 10.7953 11.4527C10.7953 11.2417 10.968 11.0691 11.179 11.0691H12.7135C12.9245 11.0691 13.0971 11.2417 13.0971 11.4527C13.0971 11.6637 12.9245 11.8364 12.7135 11.8364Z" fill="white"/>
<path d="M15.7827 13.3708H14.2481C14.0371 13.3708 13.8645 13.1981 13.8645 12.9871C13.8645 12.7761 14.0371 12.6035 14.2481 12.6035H15.7827C15.9937 12.6035 16.1663 12.7761 16.1663 12.9871C16.1663 13.1981 15.9937 13.3708 15.7827 13.3708Z" fill="white"/>
<path d="M15.7827 11.8364H14.2481C14.0371 11.8364 13.8645 11.6637 13.8645 11.4527C13.8645 11.2417 14.0371 11.0691 14.2481 11.0691H15.7827C15.9937 11.0691 16.1663 11.2417 16.1663 11.4527C16.1663 11.6637 15.9937 11.8364 15.7827 11.8364Z" fill="white"/>
<path d="M15.7827 10.3018H14.2481C14.0371 10.3018 13.8645 10.1292 13.8645 9.91818C13.8645 9.70718 14.0371 9.53455 14.2481 9.53455H15.7827C15.9937 9.53455 16.1663 9.70718 16.1663 9.91818C16.1663 10.1292 15.9937 10.3018 15.7827 10.3018Z" fill="white"/>
<path d="M15.7827 8.76726H14.2481C14.0371 8.76726 13.8645 8.59463 13.8645 8.38363C13.8645 8.17263 14.0371 8 14.2481 8H15.7827C15.9937 8 16.1663 8.17263 16.1663 8.38363C16.1663 8.59463 15.9937 8.76726 15.7827 8.76726Z" fill="white"/>
<path d="M18.8518 13.3708H17.3172C17.1062 13.3708 16.9336 13.1981 16.9336 12.9871C16.9336 12.7761 17.1062 12.6035 17.3172 12.6035H18.8518C19.0628 12.6035 19.2354 12.7761 19.2354 12.9871C19.2354 13.1981 19.0628 13.3708 18.8518 13.3708Z" fill="white"/>
<path d="M18.8518 11.8364H17.3172C17.1062 11.8364 16.9336 11.6637 16.9336 11.4527C16.9336 11.2417 17.1062 11.0691 17.3172 11.0691H18.8518C19.0628 11.0691 19.2354 11.2417 19.2354 11.4527C19.2354 11.6637 19.0628 11.8364 18.8518 11.8364Z" fill="white"/>
<path d="M18.8518 10.3018H17.3172C17.1062 10.3018 16.9336 10.1292 16.9336 9.91818C16.9336 9.70718 17.1062 9.53455 17.3172 9.53455H18.8518C19.0628 9.53455 19.2354 9.70718 19.2354 9.91818C19.2354 10.1292 19.0628 10.3018 18.8518 10.3018Z" fill="white"/>
<path d="M7.91818 17.399C7.70718 17.399 7.53455 17.5717 7.53455 17.7827C7.53455 17.9937 7.70718 18.1663 7.91818 18.1663C8.12918 18.1663 8.30181 17.9937 8.30181 17.7827C8.30181 17.5717 8.12918 17.399 7.91818 17.399Z" fill="white"/>
</svg>
