<svg width="27" height="27" viewBox="0 0 27 27" fill="none" xmlns="http://www.w3.org/2000/svg">
<circle cx="13.5" cy="13.5" r="13.5" fill="#303045"/>
<path d="M17.9518 13.4378C17.7809 13.2704 17.7776 12.9923 17.9484 12.8215L19.5295 11.217H11.9926C11.7515 11.217 11.5572 11.0227 11.5572 10.7815C11.5572 10.5403 11.7515 10.3461 11.9926 10.3461H19.5261L17.9451 8.74155C17.7776 8.57071 17.7776 8.29603 17.9484 8.1252C18.1192 7.95771 18.3939 7.95771 18.5648 8.12855L20.8761 10.4733C20.9129 10.5135 20.9464 10.5571 20.9665 10.6107C20.99 10.6643 21 10.7212 21 10.7782C21 10.8921 20.9565 10.9992 20.8761 11.083L18.5648 13.4278C18.3973 13.602 18.1226 13.6053 17.9518 13.4378ZM9.04824 18.0604C9.21907 17.893 9.22242 17.6149 9.05159 17.4441L7.47387 15.8396H15.0074C15.2485 15.8396 15.4428 15.6453 15.4428 15.4041C15.4428 15.1629 15.2485 14.9687 15.0074 14.9687H7.47387L9.05494 13.3641C9.22242 13.1933 9.22242 12.9186 9.05159 12.7478C8.88075 12.5803 8.60607 12.5803 8.43524 12.7511L6.12394 15.0959C6.08709 15.1361 6.0536 15.1797 6.0335 15.2333C6.01005 15.2869 6 15.3438 6 15.4008C6 15.5147 6.04355 15.6218 6.12394 15.7056L8.43524 18.0504C8.60272 18.2246 8.8774 18.2279 9.04824 18.0604Z" fill="white"/>
</svg>
