<svg width="30" height="30" viewBox="0 0 30 30" fill="none" xmlns="http://www.w3.org/2000/svg">
<circle cx="15" cy="15" r="15" fill="#393E51"/>
<rect x="9.31035" y="10.3448" width="11.3793" height="10.3448" fill="#F7F7F7"/>
<path d="M7.24138 15C7.24138 13.9526 7.44639 12.9367 7.85123 11.9799C8.24193 11.0559 8.80126 10.2264 9.51387 9.51384C10.2263 8.80124 11.056 8.24192 11.98 7.85122C12.9367 7.44638 13.9526 7.24138 15.0003 7.24138C16.0475 7.24138 17.0636 7.44638 18.0202 7.85122C18.9442 8.24192 19.7739 8.80124 20.4863 9.51384C21.1987 10.2264 21.7581 11.0558 22.1489 11.9799C22.5534 12.9367 22.7586 13.9527 22.7586 15C22.7586 16.0473 22.5534 17.0633 22.1488 18.0201C21.7579 18.9439 21.1986 19.7737 20.4861 20.4862C19.7737 21.1986 18.944 21.7581 18.02 22.149C17.0634 22.5534 16.0474 22.7586 15.0001 22.7586C13.9526 22.7586 12.9366 22.5536 11.9798 22.149C11.056 21.7581 10.2261 21.1988 9.5137 20.4862C8.80109 19.7737 8.24176 18.9441 7.85106 18.0201C7.44639 17.0633 7.24138 16.0474 7.24138 15ZM15.4713 16.4369C15.3022 16.4369 15.1435 16.5035 15.0249 16.6245C14.7839 16.8707 14.7878 17.2669 15.0341 17.5082L17.0688 19.5011C17.0707 19.503 17.0726 19.5048 17.0746 19.5067L17.0793 19.5111C17.0824 19.5141 17.0857 19.517 17.0888 19.5199C17.0924 19.5232 17.096 19.5263 17.1008 19.5304L17.1027 19.532C17.1058 19.5346 17.1088 19.5372 17.1117 19.5396C17.1158 19.543 17.12 19.5461 17.1241 19.5494L17.1262 19.551C17.1293 19.5534 17.1324 19.5558 17.1355 19.558C17.1405 19.5617 17.1455 19.5653 17.1503 19.5687C17.1538 19.5711 17.1571 19.5734 17.1603 19.5754C17.1655 19.5789 17.1707 19.5822 17.1758 19.5854L17.1862 19.5918C17.1914 19.5949 17.1965 19.5979 17.2015 19.6006C17.2053 19.6027 17.209 19.6048 17.2129 19.607C17.2179 19.6096 17.2229 19.6122 17.2279 19.6146C17.2321 19.6167 17.2362 19.6187 17.2407 19.6208C17.2452 19.623 17.2498 19.6249 17.2545 19.627C17.2593 19.6291 17.2641 19.6311 17.269 19.6332C17.2727 19.6348 17.2765 19.6363 17.2815 19.638C17.2869 19.6401 17.2922 19.642 17.2979 19.6442L17.3088 19.6479C17.3148 19.6498 17.3209 19.6518 17.3271 19.6537L17.3369 19.6567C17.3434 19.6584 17.3498 19.6603 17.3564 19.6618L17.3659 19.6641C17.3724 19.6656 17.3791 19.667 17.3859 19.6684L17.3957 19.6701C17.4022 19.6713 17.4088 19.6723 17.4157 19.6734L17.4291 19.6751C17.4345 19.6758 17.44 19.6765 17.4453 19.677C17.4491 19.6773 17.4529 19.6775 17.4567 19.6779L17.4638 19.6784C17.4678 19.6787 17.4717 19.6791 17.4755 19.6792C17.4838 19.6796 17.4921 19.6798 17.5014 19.6799H17.506H17.5117C17.52 19.6799 17.5283 19.6798 17.5364 19.6794C17.5403 19.6792 17.5443 19.6789 17.5483 19.6786L17.5553 19.678C17.5591 19.6777 17.5629 19.6775 17.5666 19.6772C17.5721 19.6767 17.5774 19.676 17.5829 19.6751L17.5966 19.6734C17.6033 19.6723 17.6098 19.6713 17.6179 19.6698L17.6262 19.6682C17.6329 19.6668 17.6395 19.6654 17.6462 19.6639L17.6557 19.6617C17.6622 19.6601 17.6686 19.6584 17.675 19.6567L17.6852 19.6537C17.6912 19.652 17.6972 19.6499 17.704 19.6477L17.7145 19.6441C17.7198 19.642 17.7253 19.6401 17.7307 19.638C17.735 19.6363 17.7391 19.6348 17.7433 19.6332C17.7481 19.6311 17.7529 19.6291 17.7576 19.627C17.7622 19.6249 17.7669 19.623 17.7717 19.6206C17.7759 19.6187 17.78 19.6167 17.7841 19.6146C17.7891 19.6122 17.7941 19.6096 17.7993 19.6068C17.8031 19.6048 17.8067 19.6029 17.8104 19.6008C17.8155 19.5979 17.8209 19.5949 17.8262 19.5917L17.8362 19.5856C17.8414 19.5822 17.8467 19.5789 17.8516 19.5756C17.855 19.5734 17.8583 19.5711 17.8616 19.5687C17.8666 19.5653 17.8716 19.5618 17.8764 19.5582C17.8797 19.5558 17.8828 19.5534 17.8859 19.551L17.8879 19.5494C17.8921 19.5461 17.8962 19.543 17.9002 19.5398C17.9033 19.5372 17.9064 19.5348 17.9093 19.5322L17.9123 19.5296C17.9159 19.5265 17.9195 19.5232 17.9231 19.5201C17.9264 19.5172 17.9295 19.5142 17.9326 19.5113L17.9373 19.5068C17.9393 19.5051 17.9412 19.5032 17.9431 19.5015L19.9778 17.5083C20.2239 17.2673 20.228 16.8709 19.987 16.6247C19.8684 16.5037 19.7099 16.4371 19.5406 16.4371C19.3761 16.4371 19.2209 16.5004 19.1033 16.6156L18.1305 17.5683V15.0288L18.1514 10.9485C18.1531 10.604 17.8743 10.3221 17.5297 10.3204H17.5266C17.1838 10.3204 16.9036 10.5992 16.9017 10.942L16.8808 15.0238V17.5683L15.9082 16.6156C15.7911 16.5004 15.6358 16.4369 15.4713 16.4369ZM9.8344 12.9922C9.8344 13.1593 9.8994 13.3162 10.0173 13.4341C10.1354 13.552 10.2923 13.617 10.4592 13.617C10.6263 13.617 10.783 13.552 10.9012 13.4341L11.8693 12.466V19.0549C11.8693 19.3996 12.1495 19.6798 12.494 19.6798C12.8385 19.6798 13.1188 19.3996 13.1188 19.0549V12.4551L14.0892 13.4155C14.2071 13.532 14.3632 13.596 14.5289 13.596C14.697 13.596 14.8549 13.5303 14.973 13.4108C15.0904 13.2922 15.1546 13.135 15.1537 12.9684C15.1528 12.8013 15.087 12.6448 14.9684 12.5275L12.9335 10.5133C12.9316 10.5113 12.9298 10.5097 12.9278 10.508L12.9238 10.504C12.92 10.5006 12.9162 10.497 12.9124 10.4935C12.9093 10.4908 12.9064 10.4882 12.9033 10.4854L12.8981 10.4811C12.8952 10.4787 12.8926 10.4761 12.8895 10.4737C12.8855 10.4702 12.8814 10.4673 12.8771 10.4639L12.8659 10.4551C12.8607 10.4515 12.8554 10.4477 12.8502 10.444L12.841 10.438C12.8357 10.4344 12.83 10.4306 12.8242 10.4271L12.8154 10.4215C12.8097 10.418 12.804 10.4151 12.7985 10.412C12.7952 10.4099 12.7921 10.4083 12.7886 10.4063C12.7831 10.4035 12.7776 10.4006 12.7712 10.3975C12.7678 10.3958 12.7643 10.394 12.7609 10.3925C12.7559 10.3901 12.7505 10.3878 12.7454 10.3854C12.741 10.3837 12.7367 10.3818 12.7323 10.3801C12.7278 10.378 12.7229 10.3764 12.7185 10.3747C12.7135 10.3727 12.7085 10.3708 12.7035 10.369C12.6997 10.3677 12.6955 10.3663 12.6909 10.3647C12.6854 10.363 12.6798 10.3611 12.6741 10.3594L12.6626 10.3559C12.6566 10.3546 12.6507 10.3528 12.6447 10.3513L12.6338 10.3489C12.6274 10.3471 12.621 10.3458 12.6147 10.3449L12.6024 10.3425C12.5966 10.3414 12.5909 10.3404 12.585 10.3394C12.5819 10.339 12.579 10.3387 12.5759 10.3383L12.5691 10.3373C12.5645 10.337 12.5597 10.3363 12.5548 10.3356C12.5507 10.3352 12.5462 10.3349 12.5419 10.3346L12.5341 10.3342C12.531 10.3339 12.5279 10.3335 12.5245 10.3335C12.5141 10.3328 12.5041 10.3328 12.4936 10.3328C12.4835 10.3328 12.4731 10.3328 12.4628 10.3335C12.4591 10.3335 12.4559 10.3339 12.4524 10.3342L12.444 10.3349C12.4402 10.3352 12.4362 10.3352 12.4322 10.3356C12.4272 10.3363 12.4222 10.337 12.4174 10.3377L12.4022 10.3394C12.3962 10.3404 12.3902 10.3414 12.3841 10.3428C12.3838 10.3428 12.3821 10.3432 12.3821 10.3432L12.3726 10.3447C12.3659 10.3461 12.3591 10.3475 12.3528 10.349L12.3429 10.3511C12.3364 10.3528 12.3298 10.3547 12.3238 10.3564L12.3217 10.3568C12.3186 10.3578 12.3159 10.3585 12.3133 10.3596C12.3072 10.3613 12.3015 10.3632 12.2953 10.3652L12.2928 10.3659C12.2897 10.367 12.2865 10.368 12.2836 10.369C12.2786 10.3711 12.2736 10.3727 12.2686 10.3747L12.2862 10.4196L12.2667 10.3754C12.2628 10.3771 12.2586 10.3789 12.2547 10.3804C12.2507 10.3818 12.2467 10.3839 12.2429 10.3854L12.2403 10.3864C12.2357 10.3885 12.231 10.3904 12.2264 10.3928C12.2233 10.3942 12.22 10.3959 12.2169 10.3975L12.2148 10.3985C12.2095 10.4013 12.204 10.4039 12.1986 10.4066C12.1959 10.4083 12.1933 10.4097 12.1905 10.4113L12.1888 10.4123C12.1831 10.4154 12.1774 10.4183 12.1715 10.4221C12.1688 10.4235 12.1664 10.4252 12.1627 10.4275C12.1571 10.4311 12.1515 10.4346 12.1459 10.4383L12.1371 10.4444C12.1317 10.448 12.1262 10.4518 12.1212 10.4558C12.1186 10.4575 12.1164 10.4594 12.114 10.4611L12.1088 10.4651C12.105 10.4682 12.101 10.4711 12.0971 10.4746C12.0938 10.4773 12.0907 10.4799 12.0874 10.4827L12.081 10.4883C12.0788 10.4901 12.0765 10.492 12.0741 10.494C12.0664 10.5011 12.0588 10.5085 12.0515 10.5159L10.0173 12.5505C9.8994 12.6687 9.8344 12.8253 9.8344 12.9922Z" fill="#393E51"/>
</svg>
