<svg width="27" height="27" viewBox="0 0 27 27" fill="none" xmlns="http://www.w3.org/2000/svg">
<circle cx="13.5" cy="13.5" r="13.5" fill="#303045"/>
<path d="M18.2703 8H8.74468C8.3258 8 8 8.34131 8 8.74468V18.2548C8 18.6737 8.34131 18.9995 8.74468 18.9995H18.2548C18.6737 18.9995 18.9995 18.6582 18.9995 18.2548V8.74468C19.015 8.34131 18.6737 8 18.2703 8ZM9.97029 15.9898C9.97029 16.1604 9.83066 16.3 9.66001 16.3C9.48935 16.3 9.34973 16.1604 9.34973 15.9898V11.0252C9.34973 10.8546 9.48935 10.715 9.66001 10.715C9.83066 10.715 9.97029 10.8546 9.97029 11.0252V15.9898ZM13.5075 15.152C12.5922 15.152 11.863 14.4228 11.863 13.5075C11.863 12.5922 12.5922 11.863 13.5075 11.863C14.4228 11.863 15.152 12.5922 15.152 13.5075C15.152 14.4228 14.4228 15.152 13.5075 15.152ZM17.6653 15.9898C17.6653 16.1604 17.5257 16.3 17.355 16.3C17.1843 16.3 17.0447 16.1604 17.0447 15.9898V11.0252C17.0447 10.8546 17.1843 10.715 17.355 10.715C17.5257 10.715 17.6653 10.8546 17.6653 11.0252V15.9898Z" fill="#C3C2D5"/>
</svg>
